# xmcd
#
# Track frame offsets:
#	150
#	22332
#	55805
#	76835
#	117485
#	125829
#
# Disc length: 1931 seconds
#
# Revision: 3
# Processed by: cddbd v1.5.2PL0 Copyright (c) Steve Scherf et al.
# Submitted via: audiograbber 1.83.01
#
DISCID=51078906
DTITLE=Kosimo Di Guardo and Nico Trovato - Statue Nere
DYEAR=2006
DGENRE=Indie
TTITLE0=n.n.
TTITLE1=Mentre piangeva ubriaco e stanco mi disse che stava morendo
TTITLE2=Il giardino delle viole spente
TTITLE3=Statue nere
TTITLE4=Strepito di fumi
TTITLE5=0.75 mm
EXTD=Contatto: infokosimo@tiscali.it
EXTT0=
EXTT1=
EXTT2=
EXTT3=
EXTT4=
EXTT5=
PLAYORDER=
